<mxfile host="app.diagrams.net" modified="2023-10-12T16:25:57.226Z" agent="Mozilla/5.0 (Macintosh; Intel Mac OS X 10_15_7) AppleWebKit/605.1.15 (KHTML, like Gecko) Version/16.3 Safari/605.1.15" etag="32wrIOxlHAWs_fhGYTk9" version="22.0.4" type="device">
  <diagram name="Page-1" id="mexHCa_Tbq0mfL7sBKQv">
    <mxGraphModel dx="2985" dy="1618" grid="1" gridSize="10" guides="1" tooltips="1" connect="1" arrows="1" fold="1" page="1" pageScale="1" pageWidth="2760" pageHeight="1440" math="0" shadow="0">
      <root>
        <mxCell id="0" />
        <mxCell id="1" parent="0" />
        <mxCell id="Ef0ztAQk5E2ELIDvsa6d-131" value="" style="rounded=0;whiteSpace=wrap;html=1;fillColor=#394f62;strokeColor=#FFF2CC;" vertex="1" parent="1">
          <mxGeometry x="440" y="1000" width="400" height="400" as="geometry" />
        </mxCell>
        <mxCell id="Ef0ztAQk5E2ELIDvsa6d-122" value="" style="rounded=0;whiteSpace=wrap;html=1;fillColor=#394f62;strokeColor=#FFF2CC;" vertex="1" parent="1">
          <mxGeometry x="40" y="1000" width="400" height="400" as="geometry" />
        </mxCell>
        <mxCell id="Ef0ztAQk5E2ELIDvsa6d-102" value="Must Have" style="rounded=0;whiteSpace=wrap;html=1;fillColor=#fbb900;strokeColor=#FFF2CC;" vertex="1" parent="1">
          <mxGeometry x="40" y="520" width="400" height="40" as="geometry" />
        </mxCell>
        <mxCell id="Ef0ztAQk5E2ELIDvsa6d-103" value="" style="rounded=0;whiteSpace=wrap;html=1;fillColor=#394f62;strokeColor=#FFF2CC;" vertex="1" parent="1">
          <mxGeometry x="40" y="560" width="400" height="400" as="geometry" />
        </mxCell>
        <mxCell id="Ef0ztAQk5E2ELIDvsa6d-104" value="User Registration and Login" style="rounded=0;whiteSpace=wrap;html=1;fillColor=#fbb900;strokeColor=#FFF2CC;" vertex="1" parent="1">
          <mxGeometry x="80" y="600" width="80" height="80" as="geometry" />
        </mxCell>
        <mxCell id="Ef0ztAQk5E2ELIDvsa6d-105" value="Cluster Selection Tool" style="rounded=0;whiteSpace=wrap;html=1;fillColor=#fbb900;strokeColor=#FFF2CC;" vertex="1" parent="1">
          <mxGeometry x="200" y="600" width="80" height="80" as="geometry" />
        </mxCell>
        <mxCell id="Ef0ztAQk5E2ELIDvsa6d-107" value="Schedule Integration" style="rounded=0;whiteSpace=wrap;html=1;fillColor=#fbb900;strokeColor=#FFF2CC;" vertex="1" parent="1">
          <mxGeometry x="320" y="600" width="80" height="80" as="geometry" />
        </mxCell>
        <mxCell id="Ef0ztAQk5E2ELIDvsa6d-108" value="User Profile Management" style="rounded=0;whiteSpace=wrap;html=1;fillColor=#fbb900;strokeColor=#FFF2CC;" vertex="1" parent="1">
          <mxGeometry x="80" y="720" width="80" height="80" as="geometry" />
        </mxCell>
        <mxCell id="Ef0ztAQk5E2ELIDvsa6d-109" value="Data Storage" style="rounded=0;whiteSpace=wrap;html=1;fillColor=#fbb900;strokeColor=#FFF2CC;" vertex="1" parent="1">
          <mxGeometry x="200" y="720" width="80" height="80" as="geometry" />
        </mxCell>
        <mxCell id="Ef0ztAQk5E2ELIDvsa6d-110" value="MVP Testing and Feedback" style="rounded=0;whiteSpace=wrap;html=1;fillColor=#fbb900;strokeColor=#FFF2CC;" vertex="1" parent="1">
          <mxGeometry x="320" y="720" width="80" height="80" as="geometry" />
        </mxCell>
        <mxCell id="Ef0ztAQk5E2ELIDvsa6d-111" value="User Registration and Login" style="rounded=0;whiteSpace=wrap;html=1;fillColor=#fbb900;strokeColor=#FFF2CC;" vertex="1" parent="1">
          <mxGeometry x="80" y="840" width="80" height="80" as="geometry" />
        </mxCell>
        <mxCell id="Ef0ztAQk5E2ELIDvsa6d-112" value="Should Have" style="rounded=0;whiteSpace=wrap;html=1;fillColor=#fbb900;strokeColor=#FFF2CC;" vertex="1" parent="1">
          <mxGeometry x="440" y="520" width="400" height="40" as="geometry" />
        </mxCell>
        <mxCell id="Ef0ztAQk5E2ELIDvsa6d-113" value="" style="rounded=0;whiteSpace=wrap;html=1;fillColor=#394f62;strokeColor=#FFF2CC;" vertex="1" parent="1">
          <mxGeometry x="440" y="560" width="400" height="400" as="geometry" />
        </mxCell>
        <mxCell id="Ef0ztAQk5E2ELIDvsa6d-114" value="Research and User Persona Development" style="rounded=0;whiteSpace=wrap;html=1;fillColor=#fbb900;strokeColor=#FFF2CC;" vertex="1" parent="1">
          <mxGeometry x="480" y="600" width="80" height="80" as="geometry" />
        </mxCell>
        <mxCell id="Ef0ztAQk5E2ELIDvsa6d-115" value="UI/UX Enhancement" style="rounded=0;whiteSpace=wrap;html=1;fillColor=#fbb900;strokeColor=#FFF2CC;" vertex="1" parent="1">
          <mxGeometry x="80" y="1040" width="80" height="80" as="geometry" />
        </mxCell>
        <mxCell id="Ef0ztAQk5E2ELIDvsa6d-116" value="Save and Share Cluster Plans" style="rounded=0;whiteSpace=wrap;html=1;fillColor=#fbb900;strokeColor=#FFF2CC;" vertex="1" parent="1">
          <mxGeometry x="720" y="600" width="80" height="80" as="geometry" />
        </mxCell>
        <mxCell id="Ef0ztAQk5E2ELIDvsa6d-117" value="Notifications and Reminders" style="rounded=0;whiteSpace=wrap;html=1;fillColor=#fbb900;strokeColor=#FFF2CC;" vertex="1" parent="1">
          <mxGeometry x="600" y="600" width="80" height="80" as="geometry" />
        </mxCell>
        <mxCell id="Ef0ztAQk5E2ELIDvsa6d-118" value="Enhanced Cluster Recommen -dation Engine" style="rounded=0;whiteSpace=wrap;html=1;fillColor=#fbb900;strokeColor=#FFF2CC;" vertex="1" parent="1">
          <mxGeometry x="200" y="1040" width="80" height="80" as="geometry" />
        </mxCell>
        <mxCell id="Ef0ztAQk5E2ELIDvsa6d-119" value="Additional Features based on large scale user feedback" style="rounded=0;whiteSpace=wrap;html=1;fillColor=#fbb900;strokeColor=#FFF2CC;" vertex="1" parent="1">
          <mxGeometry x="480" y="1040" width="80" height="80" as="geometry" />
        </mxCell>
        <mxCell id="Ef0ztAQk5E2ELIDvsa6d-121" value="Could Have" style="rounded=0;whiteSpace=wrap;html=1;fillColor=#fbb900;strokeColor=#FFF2CC;" vertex="1" parent="1">
          <mxGeometry x="40" y="960" width="400" height="40" as="geometry" />
        </mxCell>
        <mxCell id="Ef0ztAQk5E2ELIDvsa6d-130" value="Won&#39;t Have" style="rounded=0;whiteSpace=wrap;html=1;fillColor=#fbb900;strokeColor=#FFF2CC;" vertex="1" parent="1">
          <mxGeometry x="440" y="960" width="400" height="40" as="geometry" />
        </mxCell>
        <mxCell id="Ef0ztAQk5E2ELIDvsa6d-139" value="Enhanced Cluster Recommen -dation Engine" style="rounded=0;whiteSpace=wrap;html=1;fillColor=#fbb900;strokeColor=#FFF2CC;" vertex="1" parent="1">
          <mxGeometry x="600" y="1040" width="80" height="80" as="geometry" />
        </mxCell>
        <mxCell id="Ef0ztAQk5E2ELIDvsa6d-101" value="" style="rounded=0;whiteSpace=wrap;html=1;fillColor=#394f62;strokeColor=#FFF2CC;" vertex="1" parent="1">
          <mxGeometry x="2080" y="360" width="640" height="80" as="geometry" />
        </mxCell>
        <mxCell id="Ef0ztAQk5E2ELIDvsa6d-100" value="" style="rounded=0;whiteSpace=wrap;html=1;fillColor=#394f62;strokeColor=#FFF2CC;" vertex="1" parent="1">
          <mxGeometry x="2080" y="280" width="640" height="80" as="geometry" />
        </mxCell>
        <mxCell id="Ef0ztAQk5E2ELIDvsa6d-99" value="" style="rounded=0;whiteSpace=wrap;html=1;fillColor=#394f62;strokeColor=#FFF2CC;" vertex="1" parent="1">
          <mxGeometry x="2080" y="200" width="640" height="80" as="geometry" />
        </mxCell>
        <mxCell id="Ef0ztAQk5E2ELIDvsa6d-98" value="" style="rounded=0;whiteSpace=wrap;html=1;fillColor=#394f62;strokeColor=#FFF2CC;" vertex="1" parent="1">
          <mxGeometry x="2080" y="120" width="640" height="80" as="geometry" />
        </mxCell>
        <mxCell id="Ef0ztAQk5E2ELIDvsa6d-79" value="" style="rounded=0;whiteSpace=wrap;html=1;fillColor=#394f62;strokeColor=#FFF2CC;" vertex="1" parent="1">
          <mxGeometry x="1440" y="360" width="640" height="80" as="geometry" />
        </mxCell>
        <mxCell id="Ef0ztAQk5E2ELIDvsa6d-78" value="" style="rounded=0;whiteSpace=wrap;html=1;fillColor=#394f62;strokeColor=#FFF2CC;" vertex="1" parent="1">
          <mxGeometry x="1440" y="280" width="640" height="80" as="geometry" />
        </mxCell>
        <mxCell id="Ef0ztAQk5E2ELIDvsa6d-77" value="" style="rounded=0;whiteSpace=wrap;html=1;fillColor=#394f62;strokeColor=#FFF2CC;" vertex="1" parent="1">
          <mxGeometry x="1440" y="200" width="640" height="80" as="geometry" />
        </mxCell>
        <mxCell id="Ef0ztAQk5E2ELIDvsa6d-76" value="" style="rounded=0;whiteSpace=wrap;html=1;fillColor=#394f62;strokeColor=#FFF2CC;" vertex="1" parent="1">
          <mxGeometry x="1440" y="120" width="640" height="80" as="geometry" />
        </mxCell>
        <mxCell id="Ef0ztAQk5E2ELIDvsa6d-61" value="" style="rounded=0;whiteSpace=wrap;html=1;fillColor=#394f62;strokeColor=#FFF2CC;" vertex="1" parent="1">
          <mxGeometry x="800" y="360" width="640" height="80" as="geometry" />
        </mxCell>
        <mxCell id="Ef0ztAQk5E2ELIDvsa6d-60" value="" style="rounded=0;whiteSpace=wrap;html=1;fillColor=#394f62;strokeColor=#FFF2CC;" vertex="1" parent="1">
          <mxGeometry x="800" y="280" width="640" height="80" as="geometry" />
        </mxCell>
        <mxCell id="Ef0ztAQk5E2ELIDvsa6d-59" value="" style="rounded=0;whiteSpace=wrap;html=1;fillColor=#394f62;strokeColor=#FFF2CC;" vertex="1" parent="1">
          <mxGeometry x="800" y="200" width="640" height="80" as="geometry" />
        </mxCell>
        <mxCell id="Ef0ztAQk5E2ELIDvsa6d-58" value="" style="rounded=0;whiteSpace=wrap;html=1;fillColor=#394f62;strokeColor=#FFF2CC;" vertex="1" parent="1">
          <mxGeometry x="800" y="120" width="640" height="80" as="geometry" />
        </mxCell>
        <mxCell id="Ef0ztAQk5E2ELIDvsa6d-1" value="&lt;font color=&quot;#ffffff&quot;&gt;General Education Class Recommendation System for AUA Students - Project Roadmap&lt;/font&gt;" style="rounded=0;whiteSpace=wrap;html=1;fillColor=#394f62;strokeColor=#FFF2CC;" vertex="1" parent="1">
          <mxGeometry x="40" y="40" width="2680" height="40" as="geometry" />
        </mxCell>
        <mxCell id="Ef0ztAQk5E2ELIDvsa6d-2" value="Milestone 1" style="rounded=0;whiteSpace=wrap;html=1;fillColor=#fbb900;strokeColor=#FFF2CC;" vertex="1" parent="1">
          <mxGeometry x="160" y="80" width="640" height="40" as="geometry" />
        </mxCell>
        <mxCell id="Ef0ztAQk5E2ELIDvsa6d-3" value="DB Developer" style="rounded=0;whiteSpace=wrap;html=1;fillColor=#fbb900;strokeColor=#FFF2CC;" vertex="1" parent="1">
          <mxGeometry x="40" y="120" width="120" height="80" as="geometry" />
        </mxCell>
        <mxCell id="Ef0ztAQk5E2ELIDvsa6d-4" value="API Developer" style="rounded=0;whiteSpace=wrap;html=1;fillColor=#fbb900;strokeColor=#FFF2CC;" vertex="1" parent="1">
          <mxGeometry x="40" y="200" width="120" height="80" as="geometry" />
        </mxCell>
        <mxCell id="Ef0ztAQk5E2ELIDvsa6d-5" value="Data Analyst" style="rounded=0;whiteSpace=wrap;html=1;fillColor=#fbb900;strokeColor=#FFF2CC;" vertex="1" parent="1">
          <mxGeometry x="40" y="280" width="120" height="80" as="geometry" />
        </mxCell>
        <mxCell id="Ef0ztAQk5E2ELIDvsa6d-6" value="Data Scientist" style="rounded=0;whiteSpace=wrap;html=1;fillColor=#fbb900;strokeColor=#FFF2CC;" vertex="1" parent="1">
          <mxGeometry x="40" y="360" width="120" height="80" as="geometry" />
        </mxCell>
        <mxCell id="Ef0ztAQk5E2ELIDvsa6d-7" value="&lt;font color=&quot;#ffffff&quot;&gt;V 1.0&lt;/font&gt;" style="rounded=0;whiteSpace=wrap;html=1;fillColor=#394f62;strokeColor=#FFF2CC;" vertex="1" parent="1">
          <mxGeometry x="40" y="80" width="120" height="40" as="geometry" />
        </mxCell>
        <mxCell id="Ef0ztAQk5E2ELIDvsa6d-13" value="" style="rounded=0;whiteSpace=wrap;html=1;fillColor=#394f62;strokeColor=#FFF2CC;" vertex="1" parent="1">
          <mxGeometry x="160" y="200" width="640" height="80" as="geometry" />
        </mxCell>
        <mxCell id="Ef0ztAQk5E2ELIDvsa6d-14" value="" style="rounded=0;whiteSpace=wrap;html=1;fillColor=#394f62;strokeColor=#FFF2CC;" vertex="1" parent="1">
          <mxGeometry x="160" y="360" width="640" height="80" as="geometry" />
        </mxCell>
        <mxCell id="Ef0ztAQk5E2ELIDvsa6d-15" value="" style="rounded=0;whiteSpace=wrap;html=1;fillColor=#394f62;strokeColor=#FFF2CC;" vertex="1" parent="1">
          <mxGeometry x="160" y="280" width="640" height="80" as="geometry" />
        </mxCell>
        <mxCell id="Ef0ztAQk5E2ELIDvsa6d-12" value="" style="rounded=0;whiteSpace=wrap;html=1;fillColor=#394f62;strokeColor=#FFF2CC;" vertex="1" parent="1">
          <mxGeometry x="160" y="120" width="640" height="80" as="geometry" />
        </mxCell>
        <mxCell id="Ef0ztAQk5E2ELIDvsa6d-9" value="Complete &quot;Developing Python Packages&quot;- Chapter 1" style="rounded=0;whiteSpace=wrap;html=1;fillColor=#fbb900;strokeColor=#FFF2CC;" vertex="1" parent="1">
          <mxGeometry x="200" y="140" width="160" height="40" as="geometry" />
        </mxCell>
        <mxCell id="Ef0ztAQk5E2ELIDvsa6d-10" value="Complete &quot;Developing Python Packages&quot;- Chapter 1" style="rounded=0;whiteSpace=wrap;html=1;fillColor=#fbb900;strokeColor=#FFF2CC;" vertex="1" parent="1">
          <mxGeometry x="200" y="220" width="160" height="40" as="geometry" />
        </mxCell>
        <mxCell id="Ef0ztAQk5E2ELIDvsa6d-11" value="Complete &quot;Developing Python Packages&quot;- Chapter 1" style="rounded=0;whiteSpace=wrap;html=1;fillColor=#fbb900;strokeColor=#FFF2CC;" vertex="1" parent="1">
          <mxGeometry x="200" y="300" width="160" height="40" as="geometry" />
        </mxCell>
        <mxCell id="Ef0ztAQk5E2ELIDvsa6d-8" value="Complete &quot;Developing Python Packages&quot;- Chapter 1" style="rounded=0;whiteSpace=wrap;html=1;fillColor=#fbb900;strokeColor=#FFF2CC;" vertex="1" parent="1">
          <mxGeometry x="200" y="380" width="160" height="40" as="geometry" />
        </mxCell>
        <mxCell id="Ef0ztAQk5E2ELIDvsa6d-17" value="Explore options for the &amp;nbsp;database structure" style="rounded=0;whiteSpace=wrap;html=1;fillColor=#fbb900;strokeColor=#FFF2CC;" vertex="1" parent="1">
          <mxGeometry x="400" y="140" width="160" height="40" as="geometry" />
        </mxCell>
        <mxCell id="Ef0ztAQk5E2ELIDvsa6d-18" value="" style="endArrow=classic;html=1;rounded=0;exitX=1;exitY=0.5;exitDx=0;exitDy=0;entryX=0;entryY=0.5;entryDx=0;entryDy=0;fillColor=#394f62;strokeColor=#FFF2CC;" edge="1" parent="1" source="Ef0ztAQk5E2ELIDvsa6d-9" target="Ef0ztAQk5E2ELIDvsa6d-17">
          <mxGeometry width="50" height="50" relative="1" as="geometry">
            <mxPoint x="430" y="320" as="sourcePoint" />
            <mxPoint x="480" y="270" as="targetPoint" />
          </mxGeometry>
        </mxCell>
        <mxCell id="Ef0ztAQk5E2ELIDvsa6d-19" value="Plan the API architecture and endpoints" style="rounded=0;whiteSpace=wrap;html=1;fillColor=#fbb900;strokeColor=#FFF2CC;" vertex="1" parent="1">
          <mxGeometry x="400" y="220" width="160" height="40" as="geometry" />
        </mxCell>
        <mxCell id="Ef0ztAQk5E2ELIDvsa6d-20" value="" style="endArrow=classic;html=1;rounded=0;exitX=1;exitY=0.5;exitDx=0;exitDy=0;entryX=0;entryY=0.5;entryDx=0;entryDy=0;fillColor=#394f62;strokeColor=#FFF2CC;" edge="1" parent="1" source="Ef0ztAQk5E2ELIDvsa6d-10" target="Ef0ztAQk5E2ELIDvsa6d-19">
          <mxGeometry width="50" height="50" relative="1" as="geometry">
            <mxPoint x="430" y="320" as="sourcePoint" />
            <mxPoint x="480" y="270" as="targetPoint" />
          </mxGeometry>
        </mxCell>
        <mxCell id="Ef0ztAQk5E2ELIDvsa6d-21" value="Explore sources for the initial data analysis" style="rounded=0;whiteSpace=wrap;html=1;fillColor=#fbb900;strokeColor=#FFF2CC;" vertex="1" parent="1">
          <mxGeometry x="400" y="300" width="160" height="40" as="geometry" />
        </mxCell>
        <mxCell id="Ef0ztAQk5E2ELIDvsa6d-22" value="Explore appropriate algorithms for cluster recommendation" style="rounded=0;whiteSpace=wrap;html=1;fillColor=#fbb900;strokeColor=#FFF2CC;" vertex="1" parent="1">
          <mxGeometry x="600" y="380" width="160" height="40" as="geometry" />
        </mxCell>
        <mxCell id="Ef0ztAQk5E2ELIDvsa6d-23" value="" style="endArrow=classic;html=1;rounded=0;exitX=0.5;exitY=1;exitDx=0;exitDy=0;entryX=0.5;entryY=0;entryDx=0;entryDy=0;fillColor=#394f62;strokeColor=#FFF2CC;" edge="1" parent="1" source="Ef0ztAQk5E2ELIDvsa6d-21" target="Ef0ztAQk5E2ELIDvsa6d-22">
          <mxGeometry width="50" height="50" relative="1" as="geometry">
            <mxPoint x="430" y="320" as="sourcePoint" />
            <mxPoint x="480" y="270" as="targetPoint" />
            <Array as="points">
              <mxPoint x="480" y="350" />
              <mxPoint x="680" y="350" />
            </Array>
          </mxGeometry>
        </mxCell>
        <mxCell id="Ef0ztAQk5E2ELIDvsa6d-24" value="" style="endArrow=classic;html=1;rounded=0;exitX=1;exitY=0.5;exitDx=0;exitDy=0;entryX=0;entryY=0.5;entryDx=0;entryDy=0;fillColor=#394f62;strokeColor=#FFF2CC;" edge="1" parent="1" source="Ef0ztAQk5E2ELIDvsa6d-11" target="Ef0ztAQk5E2ELIDvsa6d-21">
          <mxGeometry width="50" height="50" relative="1" as="geometry">
            <mxPoint x="430" y="320" as="sourcePoint" />
            <mxPoint x="480" y="270" as="targetPoint" />
          </mxGeometry>
        </mxCell>
        <mxCell id="Ef0ztAQk5E2ELIDvsa6d-25" value="" style="endArrow=classic;html=1;rounded=0;exitX=1;exitY=0.5;exitDx=0;exitDy=0;entryX=0;entryY=0.5;entryDx=0;entryDy=0;fillColor=#394f62;strokeColor=#FFF2CC;" edge="1" parent="1" source="Ef0ztAQk5E2ELIDvsa6d-8" target="Ef0ztAQk5E2ELIDvsa6d-22">
          <mxGeometry width="50" height="50" relative="1" as="geometry">
            <mxPoint x="430" y="320" as="sourcePoint" />
            <mxPoint x="480" y="270" as="targetPoint" />
          </mxGeometry>
        </mxCell>
        <mxCell id="Ef0ztAQk5E2ELIDvsa6d-26" value="Install DBeaver" style="rounded=0;whiteSpace=wrap;html=1;fillColor=#fbb900;strokeColor=#FFF2CC;" vertex="1" parent="1">
          <mxGeometry x="600" y="140" width="160" height="40" as="geometry" />
        </mxCell>
        <mxCell id="Ef0ztAQk5E2ELIDvsa6d-27" value="" style="endArrow=classic;html=1;rounded=0;exitX=1;exitY=0.5;exitDx=0;exitDy=0;entryX=0;entryY=0.5;entryDx=0;entryDy=0;fillColor=#394f62;strokeColor=#FFF2CC;" edge="1" parent="1" source="Ef0ztAQk5E2ELIDvsa6d-17" target="Ef0ztAQk5E2ELIDvsa6d-26">
          <mxGeometry width="50" height="50" relative="1" as="geometry">
            <mxPoint x="550" y="330" as="sourcePoint" />
            <mxPoint x="600" y="280" as="targetPoint" />
          </mxGeometry>
        </mxCell>
        <mxCell id="Ef0ztAQk5E2ELIDvsa6d-28" value="Install FastAPI" style="rounded=0;whiteSpace=wrap;html=1;fillColor=#fbb900;strokeColor=#FFF2CC;" vertex="1" parent="1">
          <mxGeometry x="600" y="220" width="160" height="40" as="geometry" />
        </mxCell>
        <mxCell id="Ef0ztAQk5E2ELIDvsa6d-29" value="" style="endArrow=classic;html=1;rounded=0;exitX=1;exitY=0.5;exitDx=0;exitDy=0;entryX=0;entryY=0.5;entryDx=0;entryDy=0;fillColor=#394f62;strokeColor=#FFF2CC;" edge="1" parent="1" source="Ef0ztAQk5E2ELIDvsa6d-19" target="Ef0ztAQk5E2ELIDvsa6d-28">
          <mxGeometry width="50" height="50" relative="1" as="geometry">
            <mxPoint x="570" y="170" as="sourcePoint" />
            <mxPoint x="610" y="170" as="targetPoint" />
          </mxGeometry>
        </mxCell>
        <mxCell id="Ef0ztAQk5E2ELIDvsa6d-30" value="Milestone 2" style="rounded=0;whiteSpace=wrap;html=1;fillColor=#fbb900;strokeColor=#FFF2CC;" vertex="1" parent="1">
          <mxGeometry x="800" y="80" width="640" height="40" as="geometry" />
        </mxCell>
        <mxCell id="Ef0ztAQk5E2ELIDvsa6d-31" value="&lt;font color=&quot;#ffffff&quot;&gt;* Milestones 2-4 will get more details in the future&lt;/font&gt;" style="rounded=0;whiteSpace=wrap;html=1;fillColor=#394f62;strokeColor=#FFF2CC;" vertex="1" parent="1">
          <mxGeometry x="2400" y="440" width="320" height="40" as="geometry" />
        </mxCell>
        <mxCell id="Ef0ztAQk5E2ELIDvsa6d-32" value="Complete &quot;Developing Python Packages&quot;- Chapter 2" style="rounded=0;whiteSpace=wrap;html=1;fillColor=#fbb900;strokeColor=#FFF2CC;" vertex="1" parent="1">
          <mxGeometry x="840" y="140" width="160" height="40" as="geometry" />
        </mxCell>
        <mxCell id="Ef0ztAQk5E2ELIDvsa6d-33" value="Complete &quot;Developing Python Packages&quot;- Chapter 2" style="rounded=0;whiteSpace=wrap;html=1;fillColor=#394f62;strokeColor=#FFF2CC;" vertex="1" parent="1">
          <mxGeometry x="840" y="220" width="160" height="40" as="geometry" />
        </mxCell>
        <mxCell id="Ef0ztAQk5E2ELIDvsa6d-34" value="Complete &quot;Developing Python Packages&quot;- Chapter 2" style="rounded=0;whiteSpace=wrap;html=1;fillColor=#fbb900;strokeColor=#FFF2CC;" vertex="1" parent="1">
          <mxGeometry x="840" y="300" width="160" height="40" as="geometry" />
        </mxCell>
        <mxCell id="Ef0ztAQk5E2ELIDvsa6d-35" value="Complete &quot;Developing Python Packages&quot;- Chapter 2" style="rounded=0;whiteSpace=wrap;html=1;fillColor=#fbb900;strokeColor=#FFF2CC;" vertex="1" parent="1">
          <mxGeometry x="840" y="380" width="160" height="40" as="geometry" />
        </mxCell>
        <mxCell id="Ef0ztAQk5E2ELIDvsa6d-36" value="" style="endArrow=classic;html=1;rounded=0;exitX=1;exitY=0.5;exitDx=0;exitDy=0;entryX=0;entryY=0.5;entryDx=0;entryDy=0;fillColor=#394f62;strokeColor=#FFF2CC;" edge="1" parent="1" source="Ef0ztAQk5E2ELIDvsa6d-26" target="Ef0ztAQk5E2ELIDvsa6d-32">
          <mxGeometry width="50" height="50" relative="1" as="geometry">
            <mxPoint x="990" y="410" as="sourcePoint" />
            <mxPoint x="1040" y="360" as="targetPoint" />
          </mxGeometry>
        </mxCell>
        <mxCell id="Ef0ztAQk5E2ELIDvsa6d-37" value="" style="endArrow=classic;html=1;rounded=0;exitX=1;exitY=0.5;exitDx=0;exitDy=0;entryX=0;entryY=0.5;entryDx=0;entryDy=0;fillColor=#394f62;strokeColor=#FFF2CC;" edge="1" parent="1" source="Ef0ztAQk5E2ELIDvsa6d-28" target="Ef0ztAQk5E2ELIDvsa6d-33">
          <mxGeometry width="50" height="50" relative="1" as="geometry">
            <mxPoint x="990" y="410" as="sourcePoint" />
            <mxPoint x="1040" y="360" as="targetPoint" />
          </mxGeometry>
        </mxCell>
        <mxCell id="Ef0ztAQk5E2ELIDvsa6d-38" value="" style="endArrow=classic;html=1;rounded=0;exitX=1;exitY=0.5;exitDx=0;exitDy=0;entryX=0;entryY=0.5;entryDx=0;entryDy=0;fillColor=#394f62;strokeColor=#FFF2CC;" edge="1" parent="1" source="Ef0ztAQk5E2ELIDvsa6d-21" target="Ef0ztAQk5E2ELIDvsa6d-34">
          <mxGeometry width="50" height="50" relative="1" as="geometry">
            <mxPoint x="990" y="410" as="sourcePoint" />
            <mxPoint x="1040" y="360" as="targetPoint" />
          </mxGeometry>
        </mxCell>
        <mxCell id="Ef0ztAQk5E2ELIDvsa6d-39" value="" style="endArrow=classic;html=1;rounded=0;exitX=1;exitY=0.5;exitDx=0;exitDy=0;entryX=0;entryY=0.5;entryDx=0;entryDy=0;fillColor=#394f62;strokeColor=#FFF2CC;" edge="1" parent="1" source="Ef0ztAQk5E2ELIDvsa6d-22" target="Ef0ztAQk5E2ELIDvsa6d-35">
          <mxGeometry width="50" height="50" relative="1" as="geometry">
            <mxPoint x="910" y="410" as="sourcePoint" />
            <mxPoint x="960" y="360" as="targetPoint" />
          </mxGeometry>
        </mxCell>
        <mxCell id="Ef0ztAQk5E2ELIDvsa6d-40" value="organize support of the MVP features" style="rounded=0;whiteSpace=wrap;html=1;fillColor=#fbb900;strokeColor=#FFF2CC;" vertex="1" parent="1">
          <mxGeometry x="1240" y="140" width="160" height="40" as="geometry" />
        </mxCell>
        <mxCell id="Ef0ztAQk5E2ELIDvsa6d-41" value="Complete &quot;Developing Python Packages&quot;- Chapter 2" style="rounded=0;whiteSpace=wrap;html=1;fillColor=#fbb900;strokeColor=#FFF2CC;" vertex="1" parent="1">
          <mxGeometry x="840" y="220" width="160" height="40" as="geometry" />
        </mxCell>
        <mxCell id="Ef0ztAQk5E2ELIDvsa6d-42" value="Develop core functionalities for user registration, login, and cluster selection" style="rounded=0;whiteSpace=wrap;html=1;fillColor=#fbb900;strokeColor=#FFF2CC;" vertex="1" parent="1">
          <mxGeometry x="1040" y="220" width="160" height="40" as="geometry" />
        </mxCell>
        <mxCell id="Ef0ztAQk5E2ELIDvsa6d-43" value="Provide insights for users based on initial data" style="rounded=0;whiteSpace=wrap;html=1;fillColor=#fbb900;strokeColor=#FFF2CC;" vertex="1" parent="1">
          <mxGeometry x="1040" y="300" width="160" height="40" as="geometry" />
        </mxCell>
        <mxCell id="Ef0ztAQk5E2ELIDvsa6d-44" value="Develop initial recommendation engine for MVP" style="rounded=0;whiteSpace=wrap;html=1;fillColor=#fbb900;strokeColor=#FFF2CC;" vertex="1" parent="1">
          <mxGeometry x="1240" y="380" width="160" height="40" as="geometry" />
        </mxCell>
        <mxCell id="Ef0ztAQk5E2ELIDvsa6d-45" value="" style="endArrow=classic;html=1;rounded=0;exitX=0.5;exitY=0;exitDx=0;exitDy=0;entryX=0.5;entryY=1;entryDx=0;entryDy=0;fillColor=#394f62;strokeColor=#FFF2CC;" edge="1" parent="1" source="Ef0ztAQk5E2ELIDvsa6d-43" target="Ef0ztAQk5E2ELIDvsa6d-40">
          <mxGeometry width="50" height="50" relative="1" as="geometry">
            <mxPoint x="1000" y="410" as="sourcePoint" />
            <mxPoint x="1050" y="360" as="targetPoint" />
            <Array as="points">
              <mxPoint x="1120" y="290" />
              <mxPoint x="1320" y="290" />
            </Array>
          </mxGeometry>
        </mxCell>
        <mxCell id="Ef0ztAQk5E2ELIDvsa6d-46" value="" style="endArrow=classic;html=1;rounded=0;exitX=0.5;exitY=1;exitDx=0;exitDy=0;entryX=0.5;entryY=0;entryDx=0;entryDy=0;fillColor=#394f62;strokeColor=#FFF2CC;" edge="1" parent="1" source="Ef0ztAQk5E2ELIDvsa6d-43" target="Ef0ztAQk5E2ELIDvsa6d-44">
          <mxGeometry width="50" height="50" relative="1" as="geometry">
            <mxPoint x="1000" y="410" as="sourcePoint" />
            <mxPoint x="1050" y="360" as="targetPoint" />
            <Array as="points">
              <mxPoint x="1120" y="350" />
              <mxPoint x="1320" y="350" />
            </Array>
          </mxGeometry>
        </mxCell>
        <mxCell id="Ef0ztAQk5E2ELIDvsa6d-49" value="" style="endArrow=classic;html=1;rounded=0;exitX=1;exitY=0.5;exitDx=0;exitDy=0;entryX=0;entryY=0.5;entryDx=0;entryDy=0;fillColor=#394f62;strokeColor=#FFF2CC;" edge="1" parent="1" source="Ef0ztAQk5E2ELIDvsa6d-32" target="Ef0ztAQk5E2ELIDvsa6d-40">
          <mxGeometry width="50" height="50" relative="1" as="geometry">
            <mxPoint x="1090" y="320" as="sourcePoint" />
            <mxPoint x="1140" y="270" as="targetPoint" />
          </mxGeometry>
        </mxCell>
        <mxCell id="Ef0ztAQk5E2ELIDvsa6d-50" value="" style="endArrow=classic;html=1;rounded=0;exitX=1;exitY=0.5;exitDx=0;exitDy=0;entryX=0;entryY=0.5;entryDx=0;entryDy=0;fillColor=#394f62;strokeColor=#FFF2CC;" edge="1" parent="1" source="Ef0ztAQk5E2ELIDvsa6d-41" target="Ef0ztAQk5E2ELIDvsa6d-42">
          <mxGeometry width="50" height="50" relative="1" as="geometry">
            <mxPoint x="1090" y="320" as="sourcePoint" />
            <mxPoint x="1140" y="270" as="targetPoint" />
          </mxGeometry>
        </mxCell>
        <mxCell id="Ef0ztAQk5E2ELIDvsa6d-51" value="" style="endArrow=classic;html=1;rounded=0;exitX=1;exitY=0.5;exitDx=0;exitDy=0;entryX=0;entryY=0.5;entryDx=0;entryDy=0;fillColor=#394f62;strokeColor=#FFF2CC;" edge="1" parent="1" source="Ef0ztAQk5E2ELIDvsa6d-34" target="Ef0ztAQk5E2ELIDvsa6d-43">
          <mxGeometry width="50" height="50" relative="1" as="geometry">
            <mxPoint x="1090" y="320" as="sourcePoint" />
            <mxPoint x="1140" y="270" as="targetPoint" />
          </mxGeometry>
        </mxCell>
        <mxCell id="Ef0ztAQk5E2ELIDvsa6d-52" value="" style="endArrow=classic;html=1;rounded=0;exitX=1;exitY=0.5;exitDx=0;exitDy=0;entryX=0;entryY=0.5;entryDx=0;entryDy=0;fillColor=#394f62;strokeColor=#FFF2CC;" edge="1" parent="1" source="Ef0ztAQk5E2ELIDvsa6d-35" target="Ef0ztAQk5E2ELIDvsa6d-44">
          <mxGeometry width="50" height="50" relative="1" as="geometry">
            <mxPoint x="1090" y="320" as="sourcePoint" />
            <mxPoint x="1140" y="270" as="targetPoint" />
          </mxGeometry>
        </mxCell>
        <mxCell id="Ef0ztAQk5E2ELIDvsa6d-53" value="Milestone 3" style="rounded=0;whiteSpace=wrap;html=1;fillColor=#fbb900;strokeColor=#FFF2CC;" vertex="1" parent="1">
          <mxGeometry x="1440" y="80" width="640" height="40" as="geometry" />
        </mxCell>
        <mxCell id="Ef0ztAQk5E2ELIDvsa6d-54" value="" style="endArrow=classic;html=1;rounded=0;exitX=1;exitY=0.5;exitDx=0;exitDy=0;fillColor=#394f62;strokeColor=#FFF2CC;" edge="1" parent="1" source="Ef0ztAQk5E2ELIDvsa6d-40">
          <mxGeometry width="50" height="50" relative="1" as="geometry">
            <mxPoint x="1570" y="360" as="sourcePoint" />
            <mxPoint x="1480" y="160" as="targetPoint" />
          </mxGeometry>
        </mxCell>
        <mxCell id="Ef0ztAQk5E2ELIDvsa6d-55" value="" style="endArrow=classic;html=1;rounded=0;exitX=1;exitY=0.5;exitDx=0;exitDy=0;fillColor=#394f62;strokeColor=#FFF2CC;" edge="1" parent="1" source="Ef0ztAQk5E2ELIDvsa6d-42">
          <mxGeometry width="50" height="50" relative="1" as="geometry">
            <mxPoint x="1570" y="360" as="sourcePoint" />
            <mxPoint x="1480" y="240" as="targetPoint" />
          </mxGeometry>
        </mxCell>
        <mxCell id="Ef0ztAQk5E2ELIDvsa6d-56" value="" style="endArrow=classic;html=1;rounded=0;exitX=1;exitY=0.5;exitDx=0;exitDy=0;fillColor=#394f62;strokeColor=#FFF2CC;" edge="1" parent="1" source="Ef0ztAQk5E2ELIDvsa6d-43">
          <mxGeometry width="50" height="50" relative="1" as="geometry">
            <mxPoint x="1320" y="350" as="sourcePoint" />
            <mxPoint x="1480" y="320" as="targetPoint" />
          </mxGeometry>
        </mxCell>
        <mxCell id="Ef0ztAQk5E2ELIDvsa6d-57" value="" style="endArrow=classic;html=1;rounded=0;exitX=1;exitY=0.5;exitDx=0;exitDy=0;fillColor=#394f62;strokeColor=#FFF2CC;" edge="1" parent="1" source="Ef0ztAQk5E2ELIDvsa6d-44">
          <mxGeometry width="50" height="50" relative="1" as="geometry">
            <mxPoint x="1310" y="350" as="sourcePoint" />
            <mxPoint x="1480" y="400" as="targetPoint" />
          </mxGeometry>
        </mxCell>
        <mxCell id="Ef0ztAQk5E2ELIDvsa6d-62" value="Complete &quot;Developing Python Packages&quot;- Chapter 3" style="rounded=0;whiteSpace=wrap;html=1;fillColor=#fbb900;strokeColor=#FFF2CC;" vertex="1" parent="1">
          <mxGeometry x="1480" y="140" width="160" height="40" as="geometry" />
        </mxCell>
        <mxCell id="Ef0ztAQk5E2ELIDvsa6d-63" value="Complete &quot;Developing Python Packages&quot;- Chapter 3" style="rounded=0;whiteSpace=wrap;html=1;fillColor=#fbb900;strokeColor=#FFF2CC;" vertex="1" parent="1">
          <mxGeometry x="1480" y="220" width="160" height="40" as="geometry" />
        </mxCell>
        <mxCell id="Ef0ztAQk5E2ELIDvsa6d-64" value="Complete &quot;Developing Python Packages&quot;- Chapter 3" style="rounded=0;whiteSpace=wrap;html=1;fillColor=#fbb900;strokeColor=#FFF2CC;" vertex="1" parent="1">
          <mxGeometry x="1480" y="300" width="160" height="40" as="geometry" />
        </mxCell>
        <mxCell id="Ef0ztAQk5E2ELIDvsa6d-65" value="Complete &quot;Developing Python Packages&quot;- Chapter 3" style="rounded=0;whiteSpace=wrap;html=1;fillColor=#fbb900;strokeColor=#FFF2CC;" vertex="1" parent="1">
          <mxGeometry x="1480" y="380" width="160" height="40" as="geometry" />
        </mxCell>
        <mxCell id="Ef0ztAQk5E2ELIDvsa6d-66" value="Focus on performance and data storage improvements" style="rounded=0;whiteSpace=wrap;html=1;fillColor=#fbb900;strokeColor=#FFF2CC;" vertex="1" parent="1">
          <mxGeometry x="1680" y="140" width="160" height="40" as="geometry" />
        </mxCell>
        <mxCell id="Ef0ztAQk5E2ELIDvsa6d-67" value="Work on additional features such as saving and sharing&amp;nbsp;" style="rounded=0;whiteSpace=wrap;html=1;fillColor=#fbb900;strokeColor=#FFF2CC;" vertex="1" parent="1">
          <mxGeometry x="1680" y="220" width="160" height="40" as="geometry" />
        </mxCell>
        <mxCell id="Ef0ztAQk5E2ELIDvsa6d-68" value="Gather a small sample of user feedback and analyze" style="rounded=0;whiteSpace=wrap;html=1;fillColor=#fbb900;strokeColor=#FFF2CC;" vertex="1" parent="1">
          <mxGeometry x="1680" y="300" width="160" height="40" as="geometry" />
        </mxCell>
        <mxCell id="Ef0ztAQk5E2ELIDvsa6d-69" value="Fine-tune the cluster recommendation algorithm&amp;nbsp;" style="rounded=0;whiteSpace=wrap;html=1;fillColor=#fbb900;strokeColor=#FFF2CC;" vertex="1" parent="1">
          <mxGeometry x="1880" y="380" width="160" height="40" as="geometry" />
        </mxCell>
        <mxCell id="Ef0ztAQk5E2ELIDvsa6d-70" value="" style="endArrow=classic;html=1;rounded=0;exitX=1;exitY=0.5;exitDx=0;exitDy=0;entryX=0;entryY=0.5;entryDx=0;entryDy=0;fillColor=#394f62;strokeColor=#FFF2CC;" edge="1" parent="1" source="Ef0ztAQk5E2ELIDvsa6d-62" target="Ef0ztAQk5E2ELIDvsa6d-66">
          <mxGeometry width="50" height="50" relative="1" as="geometry">
            <mxPoint x="1790" y="180" as="sourcePoint" />
            <mxPoint x="1840" y="130" as="targetPoint" />
          </mxGeometry>
        </mxCell>
        <mxCell id="Ef0ztAQk5E2ELIDvsa6d-71" value="" style="endArrow=classic;html=1;rounded=0;exitX=1;exitY=0.5;exitDx=0;exitDy=0;entryX=0;entryY=0.5;entryDx=0;entryDy=0;fillColor=#394f62;strokeColor=#FFF2CC;" edge="1" parent="1" source="Ef0ztAQk5E2ELIDvsa6d-63" target="Ef0ztAQk5E2ELIDvsa6d-67">
          <mxGeometry width="50" height="50" relative="1" as="geometry">
            <mxPoint x="1790" y="180" as="sourcePoint" />
            <mxPoint x="1840" y="130" as="targetPoint" />
          </mxGeometry>
        </mxCell>
        <mxCell id="Ef0ztAQk5E2ELIDvsa6d-72" value="" style="endArrow=classic;html=1;rounded=0;exitX=1;exitY=0.5;exitDx=0;exitDy=0;fillColor=#394f62;strokeColor=#FFF2CC;" edge="1" parent="1" source="Ef0ztAQk5E2ELIDvsa6d-64" target="Ef0ztAQk5E2ELIDvsa6d-68">
          <mxGeometry width="50" height="50" relative="1" as="geometry">
            <mxPoint x="1790" y="180" as="sourcePoint" />
            <mxPoint x="1840" y="130" as="targetPoint" />
          </mxGeometry>
        </mxCell>
        <mxCell id="Ef0ztAQk5E2ELIDvsa6d-73" value="" style="endArrow=classic;html=1;rounded=0;exitX=1;exitY=0.5;exitDx=0;exitDy=0;fillColor=#394f62;strokeColor=#FFF2CC;" edge="1" parent="1" source="Ef0ztAQk5E2ELIDvsa6d-65" target="Ef0ztAQk5E2ELIDvsa6d-69">
          <mxGeometry width="50" height="50" relative="1" as="geometry">
            <mxPoint x="1790" y="280" as="sourcePoint" />
            <mxPoint x="1840" y="230" as="targetPoint" />
          </mxGeometry>
        </mxCell>
        <mxCell id="Ef0ztAQk5E2ELIDvsa6d-74" value="" style="endArrow=classic;html=1;rounded=0;exitX=0.5;exitY=1;exitDx=0;exitDy=0;entryX=0.5;entryY=0;entryDx=0;entryDy=0;fillColor=#394f62;strokeColor=#FFF2CC;" edge="1" parent="1" source="Ef0ztAQk5E2ELIDvsa6d-68" target="Ef0ztAQk5E2ELIDvsa6d-69">
          <mxGeometry width="50" height="50" relative="1" as="geometry">
            <mxPoint x="1930" y="280" as="sourcePoint" />
            <mxPoint x="1980" y="230" as="targetPoint" />
            <Array as="points">
              <mxPoint x="1760" y="350" />
              <mxPoint x="1960" y="350" />
            </Array>
          </mxGeometry>
        </mxCell>
        <mxCell id="Ef0ztAQk5E2ELIDvsa6d-80" value="Milestone 4" style="rounded=0;whiteSpace=wrap;html=1;fillColor=#fbb900;strokeColor=#FFF2CC;" vertex="1" parent="1">
          <mxGeometry x="2080" y="80" width="640" height="40" as="geometry" />
        </mxCell>
        <mxCell id="Ef0ztAQk5E2ELIDvsa6d-81" value="" style="endArrow=classic;html=1;rounded=0;exitX=1;exitY=0.5;exitDx=0;exitDy=0;fillColor=#394f62;strokeColor=#FFF2CC;" edge="1" parent="1" source="Ef0ztAQk5E2ELIDvsa6d-66">
          <mxGeometry width="50" height="50" relative="1" as="geometry">
            <mxPoint x="2100" y="240" as="sourcePoint" />
            <mxPoint x="2120" y="160" as="targetPoint" />
          </mxGeometry>
        </mxCell>
        <mxCell id="Ef0ztAQk5E2ELIDvsa6d-82" value="" style="endArrow=classic;html=1;rounded=0;exitX=1;exitY=0.5;exitDx=0;exitDy=0;fillColor=#394f62;strokeColor=#FFF2CC;" edge="1" parent="1" source="Ef0ztAQk5E2ELIDvsa6d-67">
          <mxGeometry width="50" height="50" relative="1" as="geometry">
            <mxPoint x="2100" y="240" as="sourcePoint" />
            <mxPoint x="2120" y="240" as="targetPoint" />
          </mxGeometry>
        </mxCell>
        <mxCell id="Ef0ztAQk5E2ELIDvsa6d-83" value="" style="endArrow=classic;html=1;rounded=0;exitX=1;exitY=0.5;exitDx=0;exitDy=0;fillColor=#394f62;strokeColor=#FFF2CC;" edge="1" parent="1" source="Ef0ztAQk5E2ELIDvsa6d-68">
          <mxGeometry width="50" height="50" relative="1" as="geometry">
            <mxPoint x="2100" y="240" as="sourcePoint" />
            <mxPoint x="2120" y="320" as="targetPoint" />
          </mxGeometry>
        </mxCell>
        <mxCell id="Ef0ztAQk5E2ELIDvsa6d-84" value="" style="endArrow=classic;html=1;rounded=0;exitX=1;exitY=0.5;exitDx=0;exitDy=0;fillColor=#394f62;strokeColor=#FFF2CC;" edge="1" parent="1" source="Ef0ztAQk5E2ELIDvsa6d-69">
          <mxGeometry width="50" height="50" relative="1" as="geometry">
            <mxPoint x="2100" y="240" as="sourcePoint" />
            <mxPoint x="2120" y="400" as="targetPoint" />
          </mxGeometry>
        </mxCell>
        <mxCell id="Ef0ztAQk5E2ELIDvsa6d-85" value="Complete &quot;Developing Python Packages&quot;- Chapter 4" style="rounded=0;whiteSpace=wrap;html=1;fillColor=#fbb900;strokeColor=#FFF2CC;" vertex="1" parent="1">
          <mxGeometry x="2120" y="140" width="160" height="40" as="geometry" />
        </mxCell>
        <mxCell id="Ef0ztAQk5E2ELIDvsa6d-86" value="Complete &quot;Developing Python Packages&quot;- Chapter 4" style="rounded=0;whiteSpace=wrap;html=1;fillColor=#fbb900;strokeColor=#FFF2CC;" vertex="1" parent="1">
          <mxGeometry x="2120" y="220" width="160" height="40" as="geometry" />
        </mxCell>
        <mxCell id="Ef0ztAQk5E2ELIDvsa6d-87" value="Complete &quot;Developing Python Packages&quot;- Chapter 4" style="rounded=0;whiteSpace=wrap;html=1;fillColor=#fbb900;strokeColor=#FFF2CC;" vertex="1" parent="1">
          <mxGeometry x="2120" y="300" width="160" height="40" as="geometry" />
        </mxCell>
        <mxCell id="Ef0ztAQk5E2ELIDvsa6d-88" value="Complete &quot;Developing Python Packages&quot;- Chapter 4" style="rounded=0;whiteSpace=wrap;html=1;fillColor=#fbb900;strokeColor=#FFF2CC;" vertex="1" parent="1">
          <mxGeometry x="2120" y="380" width="160" height="40" as="geometry" />
        </mxCell>
        <mxCell id="Ef0ztAQk5E2ELIDvsa6d-89" value="Prepare for the official launch and ensure database stability" style="rounded=0;whiteSpace=wrap;html=1;fillColor=#fbb900;strokeColor=#FFF2CC;" vertex="1" parent="1">
          <mxGeometry x="2320" y="140" width="160" height="40" as="geometry" />
        </mxCell>
        <mxCell id="Ef0ztAQk5E2ELIDvsa6d-90" value="Add notifications and reminders functionality" style="rounded=0;whiteSpace=wrap;html=1;fillColor=#fbb900;strokeColor=#FFF2CC;" vertex="1" parent="1">
          <mxGeometry x="2320" y="220" width="160" height="40" as="geometry" />
        </mxCell>
        <mxCell id="Ef0ztAQk5E2ELIDvsa6d-91" value="Implement analytics for monitoring user engagement" style="rounded=0;whiteSpace=wrap;html=1;fillColor=#fbb900;strokeColor=#FFF2CC;" vertex="1" parent="1">
          <mxGeometry x="2320" y="300" width="160" height="40" as="geometry" />
        </mxCell>
        <mxCell id="Ef0ztAQk5E2ELIDvsa6d-92" value="Monitor performance and make refinements as needed" style="rounded=0;whiteSpace=wrap;html=1;fillColor=#fbb900;strokeColor=#FFF2CC;" vertex="1" parent="1">
          <mxGeometry x="2520" y="380" width="160" height="40" as="geometry" />
        </mxCell>
        <mxCell id="Ef0ztAQk5E2ELIDvsa6d-93" value="" style="endArrow=classic;html=1;rounded=0;exitX=1;exitY=0.5;exitDx=0;exitDy=0;entryX=0;entryY=0.5;entryDx=0;entryDy=0;fillColor=#394f62;strokeColor=#FFF2CC;" edge="1" parent="1" source="Ef0ztAQk5E2ELIDvsa6d-85" target="Ef0ztAQk5E2ELIDvsa6d-89">
          <mxGeometry width="50" height="50" relative="1" as="geometry">
            <mxPoint x="2390" y="240" as="sourcePoint" />
            <mxPoint x="2440" y="190" as="targetPoint" />
          </mxGeometry>
        </mxCell>
        <mxCell id="Ef0ztAQk5E2ELIDvsa6d-94" value="" style="endArrow=classic;html=1;rounded=0;exitX=1;exitY=0.5;exitDx=0;exitDy=0;entryX=0;entryY=0.5;entryDx=0;entryDy=0;fillColor=#394f62;strokeColor=#FFF2CC;" edge="1" parent="1" source="Ef0ztAQk5E2ELIDvsa6d-86" target="Ef0ztAQk5E2ELIDvsa6d-90">
          <mxGeometry width="50" height="50" relative="1" as="geometry">
            <mxPoint x="2390" y="240" as="sourcePoint" />
            <mxPoint x="2440" y="190" as="targetPoint" />
          </mxGeometry>
        </mxCell>
        <mxCell id="Ef0ztAQk5E2ELIDvsa6d-95" value="" style="endArrow=classic;html=1;rounded=0;exitX=1;exitY=0.5;exitDx=0;exitDy=0;entryX=0;entryY=0.5;entryDx=0;entryDy=0;fillColor=#394f62;strokeColor=#FFF2CC;" edge="1" parent="1" source="Ef0ztAQk5E2ELIDvsa6d-87" target="Ef0ztAQk5E2ELIDvsa6d-91">
          <mxGeometry width="50" height="50" relative="1" as="geometry">
            <mxPoint x="2390" y="240" as="sourcePoint" />
            <mxPoint x="2440" y="190" as="targetPoint" />
          </mxGeometry>
        </mxCell>
        <mxCell id="Ef0ztAQk5E2ELIDvsa6d-96" value="" style="endArrow=classic;html=1;rounded=0;exitX=1;exitY=0.5;exitDx=0;exitDy=0;entryX=0;entryY=0.5;entryDx=0;entryDy=0;fillColor=#394f62;strokeColor=#FFF2CC;" edge="1" parent="1" source="Ef0ztAQk5E2ELIDvsa6d-88" target="Ef0ztAQk5E2ELIDvsa6d-92">
          <mxGeometry width="50" height="50" relative="1" as="geometry">
            <mxPoint x="2390" y="240" as="sourcePoint" />
            <mxPoint x="2440" y="190" as="targetPoint" />
          </mxGeometry>
        </mxCell>
        <mxCell id="Ef0ztAQk5E2ELIDvsa6d-97" value="" style="endArrow=classic;html=1;rounded=0;exitX=0.5;exitY=1;exitDx=0;exitDy=0;entryX=0.5;entryY=0;entryDx=0;entryDy=0;fillColor=#394f62;strokeColor=#FFF2CC;" edge="1" parent="1" source="Ef0ztAQk5E2ELIDvsa6d-91" target="Ef0ztAQk5E2ELIDvsa6d-92">
          <mxGeometry width="50" height="50" relative="1" as="geometry">
            <mxPoint x="2410" y="320" as="sourcePoint" />
            <mxPoint x="2460" y="270" as="targetPoint" />
            <Array as="points">
              <mxPoint x="2400" y="350" />
              <mxPoint x="2600" y="350" />
            </Array>
          </mxGeometry>
        </mxCell>
      </root>
    </mxGraphModel>
  </diagram>
</mxfile>
